<svg xmlns="http://www.w3.org/2000/svg" data-name="Layer 1" viewBox="0 0 512 640" x="0px" y="0px"><path d="M59.74,477.12a23.48,23.48,0,0,1-21.4-12.67c-5.11-9.37-4-19.68,3.06-28.3,4.12-5,8.94-10.74,14.24-16.13a142.43,142.43,0,0,0,34.24-56.95l-1.49-1c-6.32-4.29-12.85-8.73-19.12-13.55-26.71-20.59-45.23-43.31-56.61-69.43-20-45.8-16.33-91.13,10.85-134.75,24.9-40,62-68.62,113.4-87.54,75.94-28,153.14-29.17,229.46-3.59,49.76,16.68,87.34,42.58,114.9,79.19,21.36,28.4,31.94,61.19,30.6,94.81S497.44,292.73,474,319.63c-34.14,39.15-80,65.09-140.08,79.29-35,8.29-72,10.6-113,7.09a7,7,0,0,0-1.76,1c-39.76,33.47-87,56.13-140.28,67.37-4.16.86-8.22,1.44-12.15,2l-2.48.36A31,31,0,0,1,59.74,477.12Zm-0.32-23.83a6.64,6.64,0,0,0,1.36-.08l2.56-.37c3.73-.53,7.25-1,10.64-1.74,49.41-10.41,93.09-31.37,129.81-62.28,4.29-3.61,11.39-7.24,18.47-6.62,38.75,3.39,73.47,1.27,106.15-6.47,55.11-13,96.85-36.49,127.61-71.76,40.61-46.55,43-108.28,6.23-157.25-24.55-32.63-58.38-55.83-103.42-70.92-71-23.81-142.93-22.67-213.66,3.36-46.25,17-79.42,42.46-101.41,77.77C20.66,194,17.64,230.84,34.52,269.56c9.74,22.35,25.87,42,49.31,60.08,5.69,4.39,11.65,8.43,18,12.71,2.85,1.93,5.8,3.94,8.72,6l6.76,4.71-2,8a166.27,166.27,0,0,1-42.6,75.72c-4.64,4.71-9.05,10-12.83,14.55A5.33,5.33,0,0,0,59,452.5a3.65,3.65,0,0,0,.24.53Z"/></svg>